<?xml version="1.0" standalone="no"?>
<!DOCTYPE svg PUBLIC "-//W3C//DTD SVG 20010904//EN"
 "http://www.w3.org/TR/2001/REC-SVG-20010904/DTD/svg10.dtd">
<svg version="1.0" xmlns="http://www.w3.org/2000/svg"
 width="1920.000000pt" height="1920.000000pt" viewBox="0 0 1920.000000 1920.000000"
 preserveAspectRatio="xMidYMid meet">
<metadata>
Created by potrace 1.14, written by Peter Selinger 2001-2017
</metadata>
<g transform="translate(0.000000,1920.000000) scale(0.100000,-0.100000)"
fill="#000000" stroke="none">
<path d="M7212 19179 c-112 -28 -206 -83 -293 -169 -78 -78 -117 -139 -159
-250 -22 -58 -25 -80 -24 -200 0 -106 5 -147 20 -190 33 -95 86 -180 156 -252
l67 -69 0 -6644 0 -6643 -3305 0 c-1818 0 -3308 -2 -3310 -5 -5 -4 226 -283
341 -412 34 -38 104 -117 155 -175 332 -374 640 -700 1016 -1075 211 -210 308
-304 559 -540 183 -173 293 -272 470 -425 72 -62 144 -124 160 -139 17 -14 50
-42 75 -62 25 -20 56 -47 70 -58 151 -132 528 -424 775 -601 812 -584 1500
-941 2205 -1144 135 -39 375 -85 525 -101 251 -26 1054 -27 1325 0 19 1 78 6
130 9 53 4 107 8 120 11 14 2 61 7 105 10 92 8 108 10 190 19 84 10 346 45
370 50 11 2 43 7 70 10 28 4 115 18 195 32 80 14 155 27 168 29 12 2 30 6 40
9 9 3 35 7 57 11 128 18 588 120 840 185 83 21 188 49 235 60 95 25 301 83
370 105 25 7 79 23 120 35 173 49 629 197 833 270 75 28 201 73 280 101 187
68 620 236 732 285 22 10 42 18 45 19 11 1 551 232 665 284 200 92 287 132
394 182 68 33 125 59 128 59 7 0 775 383 918 458 296 155 834 448 905 493 8 5
101 58 205 118 454 260 985 584 1380 843 569 373 754 499 1090 739 284 203
407 296 403 304 -2 4 -2535 7 -5629 7 l-5625 0 0 6651 1 6652 53 56 c90 95
138 185 165 305 28 125 13 274 -39 390 -9 21 -18 41 -18 44 -3 15 -98 139
-125 162 -88 79 -184 132 -286 158 -82 21 -229 21 -313 -1z"/>
<path d="M8274 18185 c3 -22 8 -51 11 -65 3 -14 9 -50 15 -80 11 -60 15 -80
30 -155 17 -90 89 -469 95 -500 2 -16 7 -41 10 -55 3 -14 14 -72 25 -130 10
-58 34 -190 54 -295 19 -104 37 -203 40 -220 32 -178 48 -264 52 -285 7 -38
53 -304 60 -346 3 -20 8 -46 10 -58 2 -11 13 -75 24 -141 11 -66 22 -131 25
-145 5 -32 26 -149 31 -175 2 -11 5 -36 8 -55 2 -19 11 -78 20 -130 9 -52 18
-113 21 -135 8 -48 33 -210 39 -245 10 -56 18 -107 21 -135 2 -16 6 -43 9 -60
7 -41 34 -212 40 -255 2 -19 7 -60 11 -90 4 -30 9 -62 10 -70 1 -8 6 -40 10
-70 3 -30 8 -66 10 -80 8 -47 34 -235 40 -285 3 -27 8 -66 11 -85 5 -34 7 -47
18 -128 3 -20 8 -59 11 -87 3 -27 8 -68 11 -90 8 -65 13 -107 19 -165 4 -30 8
-69 10 -86 2 -16 7 -59 10 -95 4 -35 8 -74 10 -87 2 -13 7 -53 10 -90 4 -37 8
-78 11 -92 2 -14 6 -61 10 -105 3 -44 7 -87 9 -96 2 -8 6 -55 10 -105 4 -49 9
-97 11 -106 1 -10 6 -61 9 -115 4 -53 8 -104 10 -114 3 -16 14 -157 20 -264 2
-27 6 -84 9 -125 8 -105 15 -205 22 -350 3 -69 7 -154 9 -190 24 -433 23
-1448 0 -1715 -2 -27 -7 -100 -10 -161 -2 -60 -7 -128 -9 -150 -3 -21 -8 -75
-11 -119 -8 -104 -15 -181 -20 -225 -2 -19 -7 -60 -10 -90 -3 -30 -8 -71 -10
-90 -3 -19 -7 -57 -10 -85 -5 -46 -11 -90 -20 -155 -15 -98 -35 -232 -40 -265
-3 -22 -10 -60 -15 -85 -5 -25 -14 -72 -20 -105 -5 -33 -12 -71 -15 -85 -3
-14 -9 -47 -15 -75 -5 -27 -12 -59 -14 -70 -3 -11 -14 -60 -25 -110 -23 -105
-51 -217 -81 -330 -12 -44 -24 -89 -26 -100 -2 -11 -8 -31 -13 -45 -5 -14 -26
-79 -46 -145 -85 -278 -219 -625 -330 -855 -67 -139 -80 -164 -153 -298 -40
-74 -72 -136 -70 -137 6 -6 9388 -15 9388 -9 0 18 -326 751 -451 1013 -33 68
-59 125 -59 126 0 13 -401 822 -517 1043 -36 70 -87 168 -113 217 -75 143
-186 348 -257 475 -11 19 -39 71 -63 115 -23 44 -46 85 -50 90 -4 6 -21 35
-38 65 -37 69 -169 300 -182 320 -5 8 -21 35 -35 60 -31 56 -33 58 -218 365
-83 138 -204 336 -270 440 -66 105 -129 206 -141 225 -11 19 -24 40 -29 45 -4
6 -22 33 -39 60 -44 69 -512 770 -551 825 -18 25 -75 106 -127 180 -52 74
-121 171 -152 215 -32 44 -90 125 -130 180 -59 82 -167 228 -361 489 -12 16
-54 70 -93 120 -38 50 -108 141 -154 201 -47 61 -90 117 -97 125 -7 8 -63 78
-124 155 -198 249 -465 576 -549 670 -19 22 -53 62 -75 89 -22 27 -47 56 -55
66 -8 10 -37 44 -65 76 -44 51 -439 503 -488 559 -10 11 -55 60 -100 110 -45
49 -102 112 -127 139 -25 28 -54 60 -65 71 -11 12 -69 75 -130 140 -164 177
-164 177 -338 360 -179 189 -958 969 -1137 1139 -63 60 -156 148 -205 195 -50
47 -147 138 -215 201 -69 63 -132 122 -140 130 -17 17 -222 205 -284 260 -22
19 -49 44 -61 55 -13 11 -55 49 -95 85 -40 36 -78 70 -84 75 -6 6 -51 46 -101
89 -49 44 -105 92 -123 109 -19 16 -68 59 -110 96 -43 36 -86 74 -97 84 -11
10 -58 51 -105 90 -47 40 -90 77 -96 82 -6 6 -35 30 -64 55 -126 106 -216 184
-223 194 -5 6 -6 -7 -3 -29z"/>
<path d="M6496 14028 c-12 -64 -14 -73 -24 -113 -6 -22 -13 -57 -16 -79 -4
-21 -8 -42 -11 -46 -3 -4 -7 -25 -11 -46 -3 -21 -26 -115 -50 -209 -25 -93
-46 -177 -48 -185 -51 -209 -238 -779 -321 -975 -7 -16 -29 -72 -49 -123 -36
-93 -54 -134 -107 -250 -16 -35 -29 -65 -29 -67 0 -14 -196 -414 -260 -530
-18 -33 -40 -73 -48 -90 -67 -135 -344 -584 -511 -827 -211 -307 -526 -702
-836 -1047 -223 -248 -740 -762 -1024 -1017 -30 -27 -62 -56 -71 -64 -14 -13
-86 -77 -210 -186 -63 -56 -204 -178 -275 -239 -38 -33 -81 -70 -95 -82 -101
-86 -836 -702 -901 -753 -24 -19 -62 -51 -84 -71 -22 -19 -96 -82 -165 -139
-69 -57 -127 -107 -130 -110 -3 -3 -34 -30 -70 -60 -60 -50 -521 -451 -546
-475 -9 -9 -130 -119 -219 -200 -67 -62 -215 -205 -215 -209 0 -4 3910 -1
6196 4 l140 0 0 4110 c0 2261 -1 4110 -2 4110 -1 0 -5 -15 -8 -32z"/>
</g>
</svg>
